<?xml version="1.0" encoding="UTF-8"?>
<svg width="388px" height="204px" viewBox="0 0 388 204" version="1.1" xmlns="http://www.w3.org/2000/svg" xmlns:xlink="http://www.w3.org/1999/xlink">
    <!-- Generator: Sketch 58 (84663) - https://sketch.com -->
    <title>001-waves</title>
    <desc>Created with Sketch.</desc>
    <g id="Page-1" stroke="none" stroke-width="1" fill="none" fill-rule="evenodd" opacity="0.537597656">
        <g id="MAYA_About" transform="translate(-1294.000000, -1603.000000)" fill="#FBF9FA" fill-rule="nonzero">
            <g id="001-waves" transform="translate(1294.000000, 1603.000000)">
                <path d="M270.361114,14.7680408 C275.109958,16.9681633 278.941185,20.1392245 282.997009,23.4956327 C291.211725,30.2945306 300.521736,38 318.515656,38 C336.509576,38 345.819587,30.2937551 354.034303,23.4956327 C361.725216,17.1302449 368.367752,11.6326531 382.231239,11.6326531 C385.417902,11.6326531 388,9.0284898 388,5.81632653 C388,2.60416327 385.417902,0 382.231239,0 C364.238088,0 354.928077,7.7062449 346.713361,14.5043673 C339.022448,20.8697551 332.379912,26.3673469 318.515656,26.3673469 C304.6514,26.3673469 298.008864,20.8697551 290.317951,14.5043673 C285.875236,10.826898 281.280994,7.02457143 275.179183,4.19783673 C272.284034,2.85697959 268.858929,4.13579592 267.529037,7.05404082 C266.197607,9.97383673 267.465965,13.4271837 270.361114,14.7680408 Z" id="Path"></path>
                <path d="M28.1789628,23.4956327 C36.3883458,30.2945306 45.6924157,38 63.6755693,38 C81.6587228,38 90.9627927,30.2937551 99.1721757,23.4956327 C106.858046,17.1302449 113.496892,11.6326531 127.351907,11.6326531 C141.206923,11.6326531 147.845,17.1302449 155.53087,23.4956327 C163.740253,30.2945306 173.044323,38 191.026708,38 C209.009861,38 218.313931,30.2937551 226.524083,23.4956327 C233.977794,17.3225714 240.415998,11.9909388 253.384655,11.6497143 C256.568011,11.5659592 259.081025,8.89510204 259,5.68371429 C258.915745,2.47232653 256.255902,-0.0496326531 253.084846,0.0209387755 C236.158711,0.466081633 227.153682,7.92416327 219.207977,14.5043673 C211.521338,20.8697551 204.883261,26.3673469 191.027477,26.3673469 C177.172461,26.3673469 170.534384,20.8697551 162.848514,14.5043673 C154.639131,7.70546939 145.335061,0 127.352676,0 C109.369522,0 100.065453,7.7062449 91.8560695,14.5043673 C84.170199,20.8697551 77.5313535,26.3673469 63.676338,26.3673469 C49.8213226,26.3673469 43.182477,20.8697551 35.4966065,14.5043673 C27.2872235,7.70546939 17.9831536,0 0,0 L0,11.6326531 C13.8550155,11.6326531 20.4930923,17.1302449 28.1789628,23.4956327 Z" id="Path"></path>
                <path d="M381.246779,56 C363.302099,56 354.017167,63.7054694 345.824581,70.5043673 C338.154387,76.8697551 331.529744,82.3673469 317.702836,82.3673469 C303.876696,82.3673469 297.252054,76.8697551 289.581859,70.5043673 C281.389273,63.7054694 272.104341,56 254.158894,56 C236.214981,56 226.93005,63.7062449 218.73823,70.5043673 C211.068036,76.8697551 204.444161,82.3673469 190.61802,82.3673469 C176.792646,82.3673469 170.168771,76.8697551 162.499344,70.5043673 C154.307524,63.7054694 145.02336,56 127.079447,56 C109.134767,56 99.8506026,63.7062449 91.658783,70.5043673 C83.9893558,76.8697551 77.3647136,82.3673469 63.5393399,82.3673469 C49.7139663,82.3673469 43.0893241,76.8697551 35.4198969,70.5043673 C27.2280773,63.7054694 17.9439128,56 0,56 L0,67.6326531 C13.8253736,67.6326531 20.4492488,73.1302449 28.1186759,79.4956327 C36.3104955,86.2945306 45.5946601,94 63.5393399,94 C81.4840198,94 90.7681843,86.2937551 98.960004,79.4956327 C106.629431,73.1302449 113.254073,67.6326531 127.079447,67.6326531 C140.904821,67.6326531 147.528696,73.1302449 155.198123,79.4956327 C163.389943,86.2945306 172.674107,94 190.61802,94 C208.5627,94 217.847631,86.2937551 226.039451,79.4956327 C233.709645,73.1302449 240.33352,67.6326531 254.158894,67.6326531 C267.985802,67.6326531 274.610444,73.1302449 282.280638,79.4956327 C290.473225,86.2945306 299.758157,94 317.702836,94 C335.648283,94 344.933215,86.2937551 353.125802,79.4956327 C360.795996,73.1302449 367.420638,67.6326531 381.246779,67.6326531 C384.424858,67.6326531 387,65.0284898 387,61.8163265 C387,58.6041633 384.424858,56 381.246779,56 Z" id="Path"></path>
                <path d="M381.246779,110 C363.302099,110 354.017167,117.705469 345.824581,124.504367 C338.154387,130.869755 331.529744,136.367347 317.702836,136.367347 C303.876696,136.367347 297.252054,130.869755 289.581859,124.504367 C281.389273,117.705469 272.104341,110 254.158894,110 C236.214981,110 226.93005,117.706245 218.73823,124.504367 C211.068036,130.869755 204.444161,136.367347 190.61802,136.367347 C176.792646,136.367347 170.168771,130.869755 162.499344,124.504367 C154.307524,117.705469 145.02336,110 127.079447,110 C109.134767,110 99.8506026,117.706245 91.658783,124.504367 C83.9893558,130.869755 77.3647136,136.367347 63.5393399,136.367347 C49.7139663,136.367347 43.0893241,130.869755 35.4198969,124.504367 C27.2280773,117.705469 17.9439128,110 0,110 L0,121.632653 C13.8253736,121.632653 20.4492488,127.130245 28.1186759,133.495633 C36.3104955,140.294531 45.5946601,148 63.5393399,148 C81.4840198,148 90.7681843,140.293755 98.960004,133.495633 C106.629431,127.130245 113.254073,121.632653 127.079447,121.632653 C140.904821,121.632653 147.528696,127.130245 155.198123,133.495633 C163.389943,140.294531 172.674107,148 190.61802,148 C208.5627,148 217.847631,140.293755 226.039451,133.495633 C233.709645,127.130245 240.33352,121.632653 254.158894,121.632653 C267.985802,121.632653 274.610444,127.130245 282.280638,133.495633 C290.473225,140.294531 299.758157,148 317.702836,148 C335.648283,148 344.933215,140.293755 353.125802,133.495633 C360.795996,127.130245 367.420638,121.632653 381.246779,121.632653 C384.424858,121.632653 387,119.02849 387,115.816327 C387,112.604163 384.424858,110 381.246779,110 Z" id="Path"></path>
                <path d="M345.812232,180.504367 C338.139881,186.869755 331.513375,192.367347 317.682578,192.367347 C303.852549,192.367347 297.226043,186.869755 289.553692,180.504367 C281.358801,173.705469 272.071257,166 254.120763,166 C236.171803,166 226.88426,173.706245 218.690136,180.504367 C211.017785,186.869755 204.392047,192.367347 190.562017,192.367347 C176.732755,192.367347 170.107017,186.869755 162.435432,180.504367 C157.176277,176.140571 151.736803,171.627102 143.89641,168.776327 L140,179.722653 C145.969687,181.893306 150.420863,185.586286 155.132925,189.495633 C163.327049,196.294531 172.613825,204 190.562784,204 C208.512512,204 217.800055,196.293755 225.994178,189.495633 C233.665763,183.130245 240.292268,177.632653 254.12153,177.632653 C267.952327,177.632653 274.578833,183.130245 282.251184,189.495633 C290.446075,196.294531 299.733619,204 317.683346,204 C335.63384,204 344.921383,196.293755 353.116274,189.495633 C360.788626,183.130245 367.415131,177.632653 381.245161,177.632653 C384.424134,177.632653 387,175.02849 387,171.816327 C387,168.604163 384.423367,166 381.244393,166 C363.294666,166 354.007123,173.706245 345.812232,180.504367 Z" id="Path"></path>
                <path d="M91.3406981,180.504367 C83.6978223,186.869755 77.0968788,192.367347 63.3193683,192.367347 C49.5418578,192.367347 42.9401499,186.869755 35.2972741,180.504367 C27.1338144,173.705469 17.8817914,166 0,166 L0,177.632653 C13.7775105,177.632653 20.378454,183.130245 28.0213298,189.495633 C36.1847895,196.294531 45.4368125,204 63.3193683,204 C81.2011597,204 90.4539471,196.293755 98.6174069,189.495633 C105.599042,183.680857 111.628948,178.658653 123,177.770694 L122.1186,166.172163 C107.145505,167.342408 98.7496551,174.335184 91.3406981,180.504367 Z" id="Path"></path>
            </g>
        </g>
    </g>
</svg>