<?xml version="1.0" encoding="UTF-8"?>
<svg width="104px" height="25px" viewBox="0 0 104 25" version="1.1" xmlns="http://www.w3.org/2000/svg" xmlns:xlink="http://www.w3.org/1999/xlink">
    <!-- Generator: Sketch 58 (84663) - https://sketch.com -->
    <title>MAYA</title>
    <desc>Created with Sketch.</desc>
    <g id="Page-1" stroke="none" stroke-width="1" fill="none" fill-rule="evenodd">
        <g id="MAYA_Prices" transform="translate(-59.000000, -53.000000)" fill="#FFFFFF" fill-rule="nonzero">
            <g id="Group-3">
                <path d="M88.05,53.71 L88.05,53.5 L80.245,53.5 L75.135,68.27 L69.99,53.5 L61.8,53.5 L61.8,53.71 L61.905,53.71 C63.06,53.71 64.005,54.655 64.005,55.81 L64.005,73.59 C64.005,75.865 62.15,77.79 59.875,77.79 L59.875,78 L68.31,78 L68.31,77.79 C66.035,77.79 64.215,75.865 64.215,73.59 L64.215,55.635 L71.95,78 L71.985,77.93 L79.755,55.53 C79.755,55.635 79.79,55.705 79.79,55.81 L79.79,75.69 C79.79,76.845 78.845,77.79 77.655,77.79 L77.655,78 L88.05,78 L88.05,77.79 C86.895,77.79 85.95,76.845 85.95,75.69 L85.95,55.81 C85.95,54.655 86.895,53.71 88.05,53.71 Z M114.75,76.18 L106.875,53.5 L106.875,53.5 L99.525,73.8 C98.79,75.76 96.83,77.51 94.8,77.79 L94.8,78 L103.34,78 L103.34,77.79 C101.38,77.79 99.805,76.25 99.805,74.29 C99.805,73.87 99.875,73.485 99.98,73.135 L100.225,72.505 L106.945,72.505 L107.96,75.445 C108.345,76.6 107.4,77.79 106.245,77.79 L106.245,78 L117.025,78 L117.025,77.79 C115.975,77.79 115.065,77.125 114.75,76.18 Z M100.295,72.295 L103.655,63.02 L106.875,72.295 L106.875,72.295 L100.295,72.295 Z M131.405,53.5 L131.405,53.71 C133.085,53.885 134.38,55.32 134.38,57.035 C134.38,57.63 134.24,58.19 133.96,58.68 L131.755,62.565 L130.985,63.895 L130.04,62.215 L129.375,61.06 L126.54,56.02 C126.4,55.775 126.295,55.53 126.295,55.215 C126.295,54.41 126.96,53.745 127.765,53.71 L127.765,53.5 L116.775,53.5 L116.775,53.71 C117.72,53.85 118.735,54.76 119.225,55.635 L124.93,65.75 L124.93,75.69 C124.93,76.845 123.985,77.79 122.83,77.79 L122.83,78 L133.225,78 L133.225,77.79 C132.07,77.79 131.125,76.845 131.125,75.69 L131.125,64.105 L134.065,58.925 C135.395,56.545 138.16,54.06 140.785,53.71 L140.785,53.5 L131.405,53.5 Z M160.135,76.18 L152.26,53.5 L152.26,53.5 L144.91,73.8 C144.175,75.76 142.215,77.51 140.185,77.79 L140.185,78 L148.725,78 L148.725,77.79 C146.765,77.79 145.19,76.25 145.19,74.29 C145.19,73.87 145.26,73.485 145.365,73.135 L145.61,72.505 L152.33,72.505 L153.345,75.445 C153.73,76.6 152.785,77.79 151.63,77.79 L151.63,78 L162.41,78 L162.41,77.79 C161.36,77.79 160.45,77.125 160.135,76.18 Z M145.68,72.295 L149.04,63.02 L152.26,72.295 L152.26,72.295 L145.68,72.295 Z" id="MAYA"></path>
            </g>
        </g>
    </g>
</svg>