<?xml version="1.0" encoding="UTF-8"?>
<svg width="104px" height="25px" viewBox="0 0 104 25" version="1.1" xmlns="http://www.w3.org/2000/svg" xmlns:xlink="http://www.w3.org/1999/xlink">
    <!-- Generator: Sketch 58 (84663) - https://sketch.com -->
    <title>MAYA</title>
    <desc>Created with Sketch.</desc>
    <g id="Page-1" stroke="none" stroke-width="1" fill="none" fill-rule="evenodd">
        <g id="MAYA_home" transform="translate(-59.000000, -53.000000)" fill="#4C4C4C" fill-rule="nonzero">
            <g id="Group-6" transform="translate(-133.000000, 0.000000)">
                <path d="M221.05,53.71 L221.05,53.5 L213.245,53.5 L208.135,68.27 L202.99,53.5 L194.8,53.5 L194.8,53.71 L194.905,53.71 C196.06,53.71 197.005,54.655 197.005,55.81 L197.005,73.59 C197.005,75.865 195.15,77.79 192.875,77.79 L192.875,78 L201.31,78 L201.31,77.79 C199.035,77.79 197.215,75.865 197.215,73.59 L197.215,55.635 L204.95,78 L204.985,77.93 L212.755,55.53 C212.755,55.635 212.79,55.705 212.79,55.81 L212.79,75.69 C212.79,76.845 211.845,77.79 210.655,77.79 L210.655,78 L221.05,78 L221.05,77.79 C219.895,77.79 218.95,76.845 218.95,75.69 L218.95,55.81 C218.95,54.655 219.895,53.71 221.05,53.71 Z M247.75,76.18 L239.875,53.5 L239.875,53.5 L232.525,73.8 C231.79,75.76 229.83,77.51 227.8,77.79 L227.8,78 L236.34,78 L236.34,77.79 C234.38,77.79 232.805,76.25 232.805,74.29 C232.805,73.87 232.875,73.485 232.98,73.135 L233.225,72.505 L239.945,72.505 L240.96,75.445 C241.345,76.6 240.4,77.79 239.245,77.79 L239.245,78 L250.025,78 L250.025,77.79 C248.975,77.79 248.065,77.125 247.75,76.18 Z M233.295,72.295 L236.655,63.02 L239.875,72.295 L239.875,72.295 L233.295,72.295 Z M264.405,53.5 L264.405,53.71 C266.085,53.885 267.38,55.32 267.38,57.035 C267.38,57.63 267.24,58.19 266.96,58.68 L264.755,62.565 L263.985,63.895 L263.04,62.215 L262.375,61.06 L259.54,56.02 C259.4,55.775 259.295,55.53 259.295,55.215 C259.295,54.41 259.96,53.745 260.765,53.71 L260.765,53.5 L249.775,53.5 L249.775,53.71 C250.72,53.85 251.735,54.76 252.225,55.635 L257.93,65.75 L257.93,75.69 C257.93,76.845 256.985,77.79 255.83,77.79 L255.83,78 L266.225,78 L266.225,77.79 C265.07,77.79 264.125,76.845 264.125,75.69 L264.125,64.105 L267.065,58.925 C268.395,56.545 271.16,54.06 273.785,53.71 L273.785,53.5 L264.405,53.5 Z M293.135,76.18 L285.26,53.5 L285.26,53.5 L277.91,73.8 C277.175,75.76 275.215,77.51 273.185,77.79 L273.185,78 L281.725,78 L281.725,77.79 C279.765,77.79 278.19,76.25 278.19,74.29 C278.19,73.87 278.26,73.485 278.365,73.135 L278.61,72.505 L285.33,72.505 L286.345,75.445 C286.73,76.6 285.785,77.79 284.63,77.79 L284.63,78 L295.41,78 L295.41,77.79 C294.36,77.79 293.45,77.125 293.135,76.18 Z M278.68,72.295 L282.04,63.02 L285.26,72.295 L285.26,72.295 L278.68,72.295 Z" id="MAYA"></path>
            </g>
        </g>
    </g>
</svg>