<?xml version="1.0" encoding="UTF-8"?>
<svg width="372px" height="266px" viewBox="0 0 372 266" version="1.1" xmlns="http://www.w3.org/2000/svg" xmlns:xlink="http://www.w3.org/1999/xlink">
    <!-- Generator: Sketch 58 (84663) - https://sketch.com -->
    <title>001-waves</title>
    <desc>Created with Sketch.</desc>
    <g id="Page-1" stroke="none" stroke-width="1" fill="none" fill-rule="evenodd" opacity="0.18">
        <g id="MAYA_home" transform="translate(0.000000, -419.000000)" fill="#EDE3E7" fill-rule="nonzero">
            <g id="Group-6" transform="translate(-133.000000, 0.000000)">
                <g id="001-waves" transform="translate(0.000000, 419.000000)">
                    <path d="M359.058,19.671 C365.232,22.508 370.213,26.597 375.486,30.925 C386.166,39.692 398.27,49.628 421.664,49.628 C445.058,49.628 457.162,39.691 467.842,30.925 C477.841,22.717 486.477,15.628 504.501,15.628 L504.501,0.628 C481.108,0.628 469.004,10.565 458.324,19.331 C448.325,27.539 439.689,34.628 421.664,34.628 C403.639,34.628 395.003,27.539 385.004,19.331 C379.228,14.589 373.255,9.686 365.322,6.041 L359.058,19.671 Z" id="Path"></path>
                    <path d="M44.156,30.926 C54.835,39.693 66.938,49.629 90.331,49.629 C113.724,49.629 125.827,39.692 136.506,30.926 C146.504,22.718 155.14,15.629 173.163,15.629 C191.186,15.629 199.821,22.718 209.819,30.926 C220.498,39.693 232.601,49.629 255.993,49.629 C279.386,49.629 291.489,39.692 302.169,30.926 C311.865,22.966 320.24,16.091 337.11,15.651 L336.72,0.656 C314.702,1.23 302.988,10.847 292.652,19.332 C282.653,27.54 274.018,34.629 255.994,34.629 C237.971,34.629 229.336,27.54 219.338,19.332 C208.659,10.565 196.556,0.629 173.164,0.629 C149.771,0.629 137.668,10.566 126.989,19.332 C116.991,27.54 108.355,34.629 90.332,34.629 C72.309,34.629 63.673,27.54 53.675,19.332 C42.996,10.565 30.893,0.629 7.501,0.629 C3.358,0.629 0.001,3.987 0.001,8.129 C0.001,12.271 3.357,15.629 7.5,15.629 C25.523,15.629 34.158,22.718 44.156,30.926 Z" id="Path"></path>
                    <path d="M504.5,72.543 C481.107,72.543 469.003,82.479 458.323,91.246 C448.324,99.454 439.688,106.543 421.663,106.543 C403.639,106.543 395.003,99.454 385.004,91.246 C374.324,82.479 362.22,72.543 338.826,72.543 C315.434,72.543 303.33,82.48 292.651,91.246 C282.652,99.454 274.017,106.543 255.993,106.543 C237.97,106.543 229.335,99.454 219.337,91.246 C208.658,82.479 196.555,72.543 173.163,72.543 C149.77,72.543 137.667,82.48 126.988,91.246 C116.99,99.454 108.354,106.543 90.331,106.543 C72.308,106.543 63.672,99.454 53.674,91.246 C42.995,82.479 30.892,72.543 7.5,72.543 C3.357,72.543 0,75.901 0,80.043 C0,84.185 3.357,87.543 7.5,87.543 C25.523,87.543 34.158,94.632 44.156,102.84 C54.835,111.607 66.938,121.543 90.331,121.543 C113.724,121.543 125.827,111.606 136.506,102.84 C146.504,94.632 155.14,87.543 173.163,87.543 C191.186,87.543 199.821,94.632 209.819,102.84 C220.498,111.607 232.601,121.543 255.993,121.543 C279.386,121.543 291.49,111.606 302.169,102.84 C312.168,94.632 320.803,87.543 338.826,87.543 C356.851,87.543 365.487,94.632 375.486,102.84 C386.166,111.607 398.27,121.543 421.663,121.543 C445.057,121.543 457.161,111.606 467.841,102.84 C477.84,94.632 486.476,87.543 504.5,87.543 L504.5,72.543 Z" id="Path"></path>
                    <path d="M504.5,144.457 C481.107,144.457 469.003,154.393 458.323,163.16 C448.324,171.368 439.688,178.457 421.663,178.457 C403.639,178.457 395.003,171.368 385.004,163.16 C374.324,154.393 362.22,144.457 338.826,144.457 C315.434,144.457 303.33,154.394 292.651,163.16 C282.652,171.368 274.017,178.457 255.993,178.457 C237.97,178.457 229.335,171.368 219.337,163.16 C208.658,154.393 196.555,144.457 173.163,144.457 C149.77,144.457 137.667,154.394 126.988,163.16 C116.99,171.368 108.354,178.457 90.331,178.457 C72.308,178.457 63.672,171.368 53.674,163.16 C42.995,154.393 30.892,144.457 7.5,144.457 C3.357,144.457 0,147.815 0,151.957 C0,156.099 3.357,159.457 7.5,159.457 C25.523,159.457 34.158,166.546 44.156,174.754 C54.835,183.521 66.938,193.457 90.331,193.457 C113.724,193.457 125.827,183.52 136.506,174.754 C146.504,166.546 155.14,159.457 173.163,159.457 C191.186,159.457 199.821,166.546 209.819,174.754 C220.498,183.521 232.601,193.457 255.993,193.457 C279.386,193.457 291.49,183.52 302.169,174.754 C312.168,166.546 320.803,159.457 338.826,159.457 C356.851,159.457 365.487,166.546 375.486,174.754 C386.166,183.521 398.27,193.457 421.663,193.457 C445.057,193.457 457.161,183.52 467.841,174.754 C477.84,166.546 486.476,159.457 504.5,159.457 L504.5,144.457 Z" id="Path"></path>
                    <path d="M458.323,235.074 C448.324,243.282 439.688,250.371 421.663,250.371 C403.639,250.371 395.003,243.282 385.004,235.074 C374.324,226.307 362.22,216.371 338.826,216.371 C315.434,216.371 303.33,226.308 292.651,235.074 C282.652,243.282 274.017,250.371 255.993,250.371 C237.97,250.371 229.335,243.282 219.337,235.074 C212.483,229.447 205.394,223.627 195.176,219.951 L190.098,234.066 C197.878,236.865 203.679,241.627 209.82,246.668 C220.499,255.435 232.602,265.371 255.994,265.371 C279.387,265.371 291.491,255.434 302.17,246.668 C312.168,238.46 320.804,231.371 338.827,231.371 C356.852,231.371 365.488,238.46 375.487,246.668 C386.167,255.435 398.271,265.371 421.664,265.371 C445.058,265.371 457.162,255.434 467.842,246.668 C477.841,238.46 486.477,231.371 504.501,231.371 L504.501,216.371 C481.107,216.371 469.003,226.308 458.323,235.074 Z" id="Path"></path>
                    <path d="M126.987,235.074 C116.989,243.282 108.354,250.371 90.331,250.371 C72.308,250.371 63.672,243.282 53.674,235.074 C42.995,226.307 30.892,216.371 7.5,216.371 C3.357,216.371 0,219.729 0,223.871 C0,228.013 3.357,231.371 7.5,231.371 C25.523,231.371 34.158,238.46 44.156,246.668 C54.835,255.435 66.938,265.371 90.331,265.371 C113.723,265.371 125.827,255.434 136.506,246.668 C145.639,239.17 153.527,232.694 168.402,231.549 L167.249,216.593 C147.662,218.102 136.679,227.119 126.987,235.074 Z" id="Path"></path>
                </g>
            </g>
        </g>
    </g>
</svg>