<?xml version="1.0" encoding="UTF-8"?>
<svg width="253px" height="266px" viewBox="0 0 253 266" version="1.1" xmlns="http://www.w3.org/2000/svg" xmlns:xlink="http://www.w3.org/1999/xlink">
    <!-- Generator: Sketch 58 (84663) - https://sketch.com -->
    <title>001-waves</title>
    <desc>Created with Sketch.</desc>
    <g id="Page-1" stroke="none" stroke-width="1" fill="none" fill-rule="evenodd" opacity="0.18">
        <g id="MAYA_home" transform="translate(-1667.000000, -1833.000000)" fill="#EDE3E7" fill-rule="nonzero">
            <g id="Group-4-Copy-2" transform="translate(0.000000, 1080.000000)">
                <g id="Group-4-Copy">
                    <g id="Group-3">
                        <g id="001-waves" transform="translate(1667.000000, 753.000000)">
                            <path d="M37.156,30.926 C47.835,39.693 59.938,49.629 83.331,49.629 C106.724,49.629 118.827,39.692 129.506,30.926 C139.504,22.718 148.14,15.629 166.163,15.629 C184.186,15.629 192.821,22.718 202.819,30.926 C213.498,39.693 225.601,49.629 248.993,49.629 C272.386,49.629 284.489,39.692 295.169,30.926 C304.865,22.966 313.24,16.091 330.11,15.651 C334.251,15.543 337.52,12.099 337.414601,7.958 C337.305,3.817 333.845,0.565 329.72,0.656 C307.702,1.23 295.988,10.847 285.652,19.332 C275.653,27.54 267.018,34.629 248.994,34.629 C230.971,34.629 222.336,27.54 212.338,19.332 C201.659,10.565 189.556,0.629 166.164,0.629 C142.771,0.629 130.668,10.566 119.989,19.332 C109.991,27.54 101.355,34.629 83.332,34.629 C65.309,34.629 56.673,27.54 46.675,19.332 C35.996,10.565 23.893,0.629 0.5,0.629 L0.5,15.629 C18.523,15.629 27.158,22.718 37.156,30.926 Z" id="Path"></path>
                            <path d="M497.5,72.543 C474.107,72.543 462.003,82.479 451.323,91.246 C441.324,99.454 432.688,106.543 414.663,106.543 C396.639,106.543 388.003,99.454 378.004,91.246 C367.324,82.479 355.22,72.543 331.826,72.543 C308.434,72.543 296.33,82.48 285.651,91.246 C275.652,99.454 267.017,106.543 248.993,106.543 C230.97,106.543 222.335,99.454 212.337,91.246 C201.658,82.479 189.555,72.543 166.163,72.543 C142.77,72.543 130.667,82.48 119.988,91.246 C109.99,99.454 101.354,106.543 83.331,106.543 C65.308,106.543 56.672,99.454 46.674,91.246 C35.995,82.479 23.892,72.543 0.5,72.543 L0.5,87.543 C18.523,87.543 27.158,94.632 37.156,102.84 C47.835,111.607 59.938,121.543 83.331,121.543 C106.724,121.543 118.827,111.606 129.506,102.84 C139.504,94.632 148.14,87.543 166.163,87.543 C184.186,87.543 192.821,94.632 202.819,102.84 C213.498,111.607 225.601,121.543 248.993,121.543 C272.386,121.543 284.49,111.606 295.169,102.84 C305.168,94.632 313.803,87.543 331.826,87.543 C349.851,87.543 358.487,94.632 368.486,102.84 C379.166,111.607 391.27,121.543 414.663,121.543 C438.057,121.543 450.161,111.606 460.841,102.84 C470.84,94.632 479.476,87.543 497.5,87.543 C501.643,87.543 505,84.185 505,80.043 C505,75.901 501.643,72.543 497.5,72.543 Z" id="Path"></path>
                            <path d="M497.5,144.457 C474.107,144.457 462.003,154.393 451.323,163.16 C441.324,171.368 432.688,178.457 414.663,178.457 C396.639,178.457 388.003,171.368 378.004,163.16 C367.324,154.393 355.22,144.457 331.826,144.457 C308.434,144.457 296.33,154.394 285.651,163.16 C275.652,171.368 267.017,178.457 248.993,178.457 C230.97,178.457 222.335,171.368 212.337,163.16 C201.658,154.393 189.555,144.457 166.163,144.457 C142.77,144.457 130.667,154.394 119.988,163.16 C109.99,171.368 101.354,178.457 83.331,178.457 C65.308,178.457 56.672,171.368 46.674,163.16 C35.995,154.393 23.892,144.457 0.5,144.457 L0.5,159.457 C18.523,159.457 27.158,166.546 37.156,174.754 C47.835,183.521 59.938,193.457 83.331,193.457 C106.724,193.457 118.827,183.52 129.506,174.754 C139.504,166.546 148.14,159.457 166.163,159.457 C184.186,159.457 192.821,166.546 202.819,174.754 C213.498,183.521 225.601,193.457 248.993,193.457 C272.386,193.457 284.49,183.52 295.169,174.754 C305.168,166.546 313.803,159.457 331.826,159.457 C349.851,159.457 358.487,166.546 368.486,174.754 C379.166,183.521 391.27,193.457 414.663,193.457 C438.057,193.457 450.161,183.52 460.841,174.754 C470.84,166.546 479.476,159.457 497.5,159.457 C501.643,159.457 505,156.099 505,151.957 C505,147.815 501.643,144.457 497.5,144.457 Z" id="Path"></path>
                            <path d="M451.323,235.074 C441.324,243.282 432.688,250.371 414.663,250.371 C396.639,250.371 388.003,243.282 378.004,235.074 C367.324,226.307 355.22,216.371 331.826,216.371 C308.434,216.371 296.33,226.308 285.651,235.074 C275.652,243.282 267.017,250.371 248.993,250.371 C230.97,250.371 222.335,243.282 212.337,235.074 C205.483,229.447 198.394,223.627 188.176,219.951 L183.098,234.066 C190.878,236.865 196.679,241.627 202.82,246.668 C213.499,255.435 225.602,265.371 248.994,265.371 C272.387,265.371 284.491,255.434 295.17,246.668 C305.168,238.46 313.804,231.371 331.827,231.371 C349.852,231.371 358.488,238.46 368.487,246.668 C379.167,255.435 391.271,265.371 414.664,265.371 C438.058,265.371 450.162,255.434 460.842,246.668 C470.841,238.46 479.477,231.371 497.501,231.371 C501.644,231.371 505.001,228.013 505.001,223.871 C505.001,219.729 501.643,216.371 497.5,216.371 C474.107,216.371 462.003,226.308 451.323,235.074 Z" id="Path"></path>
                            <path d="M119.987,235.074 C109.989,243.282 101.354,250.371 83.331,250.371 C65.308,250.371 56.672,243.282 46.674,235.074 C35.995,226.307 23.892,216.371 0.5,216.371 L0.5,231.371 C18.523,231.371 27.158,238.46 37.156,246.668 C47.835,255.435 59.938,265.371 83.331,265.371 C106.723,265.371 118.827,255.434 129.506,246.668 C138.639,239.17 146.527,232.694 161.402,231.549 L160.249,216.593 C140.662,218.102 129.679,227.119 119.987,235.074 Z" id="Path"></path>
                        </g>
                    </g>
                </g>
            </g>
        </g>
    </g>
</svg>